<svg xmlns="http://www.w3.org/2000/svg" viewBox="0 0 128 128" data-name="composer-original">
  <title>Composer Logo</title>
  <g data-name="layer101"><path d="M45.34 127.9c-.53-.49-.21-1.76.73-2.91.56-.67 1.89-2.56 2.94-4.2 2.35-3.65 3.23-4.52 4.07-4 .49.31.59.84.52 2.77l-.1 2.44 1-1.22c1.89-2.46 3.67-4.21 4.27-4.21 1.33 0 1.54.88 1 4.07-.39 2.34-.39 3.15-.07 3.67.91 1.47.14 2.77-1.65 2.77-1.12 0-1.54-1.23-1.26-3.64l.25-2.14-.81 1c-1.85 2.49-3.6 4-4.59 4s-1.08-.18-1.4-2.24c-.07-.46-.56 0-1.75 1.68C47 128 46 128.6 45.34 127.9z"/><path d="M38.47 126.53c-.7-.88-.77-1.3-.63-3a9.32 9.32 0 012.7-6c1-1 1.54-1.33 2.48-1.33a2.91 2.91 0 001.61-.38c.71-.7 2.18 0 2.81 1.22 1.68 3.58-2.31 9.67-6.8 10.27-1.22.2-1.5.1-2.17-.78zm4.66-2.53a6.55 6.55 0 001.87-4.19c-.07-.74-.32-1-1.09-1.06-1.57-.17-3 1.44-3.57 4.07-.4 2.06 1.04 2.69 2.79 1.18z"/><path d="M70 126.57c-1-1-.95-4.17.14-6.48.94-2.1 2.31-3.26 6.3-5.57 1.68-1 2.91-1.82 2.77-2s-.7-.39-1.23-.63c-.91-.39-1.12-.25-4.27 2.66-2.45 2.24-3.4 3.4-3.71 4.38-.42 1.47-2.17 2.9-4.66 3.88-1.4.53-1.61.77-2 2.11-.39 1.54-1.23 2.17-2.35 1.71-.77-.28-.59-1.57.91-6.09a39 39 0 001.33-4.38c-.07-.07-4.13-.91-9-1.93l-8.93-1.82-8.83-.17c-6.94-.11-8.86-.25-8.86-.6 0-.59.87-.77 6.3-1.26a80.72 80.72 0 0114.89.25c1.82.17 2.34.14 2.06-.18-.73-.81-16.95-5.08-18.56-4.87-.8.11-.7.21 1.12 1.65 1.19.94 1.82 1.64 1.54 1.71-.66.25-8.4-3.85-8.4-4.44 0-.42.73-.46 4.66-.28a70.71 70.71 0 017.25.73 10.17 10.17 0 002.8.32c.1-.07-.28-.56-.81-1-.8-.7-.94-1-.77-2 .21-1.16.21-1.16-7.14-6.55-4.38-3.19-7.39-5.64-7.39-6 0-1-.88-1.82-2.49-2.42l-1.54-.59-.21-5.57c-.14-3.08-.25-8.65-.28-12.36 0-6.34-.07-6.83-.81-7.78s-.73-1.22-.38-3c.42-2.27.28-2.55-1.51-2.55S16 55.12 16.58 49c.32-3.08.6-5.68.7-5.75a20.57 20.57 0 014.55.88c.63.18.81-.07 1.34-2l.59-2.21-1.09-2.42c-.87-1.93-1.19-2.35-1.71-2.17-1.09.31-2-2.31-.95-2.87.42-.25.25-1.12-1-5.22-3.75-12-4.31-16.18-2.24-16.25.73 0 2.27 1.85 3.85 4.66 2.63 4.62 2.31 4.48 4 1.75 3.71-6 4.9-7 6.62-5.92a3.48 3.48 0 001.57.56c1 0 7-2.24 9.91-3.75s4-1.43 3.86.25c0 1.05-.42 1.57-2.77 3.74l-2.7 2.53.63 2.13a7.3 7.3 0 001 2.31 110.29 110.29 0 009.63-5.64c5.11-3.18 9.56-5.74 9.88-5.7a.8.8 0 01.56.77c0 .49-1.68 1.75-6 4.55-3.33 2.14-5.85 4-5.61 4a5.81 5.81 0 011.2.84c1.33 1.22 1 2.31-1.55 5C48 26 46.84 27.8 44.28 33c-2 4-2.52 4.55-5.39 6-1.08.53-1.51 1-1.51 1.51a2.2 2.2 0 01-.56 1.36c-.7.77-2 5.26-1.61 5.61a32.68 32.68 0 003.51 1 11.83 11.83 0 013.22 1c0 .49-2.1 8.44-2.31 8.8-.11.17-.56.21-1.05.1-.7-.18-.84-.1-.81.6a10 10 0 00.28 1.68c.21.73.39.56 1.58-1.65a46.38 46.38 0 018.26-9.84 41.93 41.93 0 014.73-2.91 14.75 14.75 0 016.48-2.1 17 17 0 015.36 0c3 .56 6.86 2.56 8.47 4.34l1.34 1.5h3.36c2.9 0 3.6.14 5.15 1a21.43 21.43 0 012.87 1.85A28.13 28.13 0 0191.11 60c.6 1.26.88 1.61 1 1.16a4.83 4.83 0 00-.73-2.24l-.91-1.65.7-1.33c.38-.77.73-1.51.8-1.65s-.21-.14-.63.11-.91.28-1 .1c-.73-.73-5.64-10-5.5-10.4a12.11 12.11 0 013.36-1.37 10.19 10.19 0 003.19-1.26 14.66 14.66 0 00-.49-1.92 7.53 7.53 0 00-2.31-3.37 8.85 8.85 0 00-2.24-1.75c-.77 0-5.29-2.34-6.94-3.6-2.2-1.72-3-2.11-7.18-3.4-3.43-1.09-3.6-1.19-3.6-2.1 0-1.82.91-2.42 4.9-3.15 2-.39 3.82-.78 4-.81.49-.18-3.18-4-6-6.23-4.17-3.33-4.27-3.4-4.27-4.28 0-1.29 1.19-2.13 2.87-2.1A7.93 7.93 0 0174 10.5l2.49 1.64-3.28-3.32C70.17 5.7 70 5.38 70 4s.14-1.51.87-1.79a1.2 1.2 0 00.88-1c0-1 1.15-1.51 3.22-1.23s7.81 3.29 11.84 6.34a15.81 15.81 0 002.66 1.75 13.5 13.5 0 00-1.16-3.22C87.08 2 87 1.74 87.5.87a2.33 2.33 0 013.58-.39c1.78 1.4 6.58 10.19 7.88 14.43a52.07 52.07 0 011.75 12.54c-.07 2 .14 2.84 1.4 6.13a30.21 30.21 0 001.79 4.13c.17.18 2-.21 4.27-.94a17.28 17.28 0 014.2-1c.28.32-.49 10.27-.84 10.83a2.78 2.78 0 01-1.3.63c-.59.14-1 .35-1 .45a10.61 10.61 0 001.4 2c1 1.12 1.37 1.93 1.2 2.28a2.62 2.62 0 00-.18.91c0 .21.11 1.54.18 3s.24 3.26.38 4c.28 1.61-.21 3.11-3.33 10.61a64.44 64.44 0 00-3.92 15.48 24.27 24.27 0 01-1.54 5.32 10.84 10.84 0 00-1.19 4.49c0 1.47.1 1.78.52 1.61a14.83 14.83 0 014-.49 35.5 35.5 0 01-2.87 3l-2.88 2.86 2-.67c2.42-.8 4.87-1.26 4.87-.84 0 .18-.59.6-1.29 1-1.58.81-5.12 3.54-4.14 3.19a19.24 19.24 0 013.51-.38c3.29-.18 3.43-.25-6 2.41A115.7 115.7 0 0081 114.2c-3 1.51-3 1.58-2.48 2.21s.8 1.89.42 4.13c-.21 1.23-.18 1.47.31 1.47a4.14 4.14 0 011.75 1.23 4.08 4.08 0 001.93 1.23c.88 0 .84-.11-1.19-3-1.51-2.06-1.54-3.08-.21-4.44 2-2 6.34-.81 5.43 1.57a1.06 1.06 0 01-1.72.21 1.8 1.8 0 00-2.1 0 6.86 6.86 0 001.4 2.49c1.89 2.59 2.1 4.17.67 5.08-.77.52-1.12.56-2.66.17-2.25-.49-4.07-1.61-4.35-2.63-.17-.7-.28-.63-1.82.85a8.18 8.18 0 01-5.11 2.45 2.31 2.31 0 01-1.26-.7zm4.55-2.91c1.47-1.47 2.35-3.75 1.68-4.52-.52-.67-2.17-.56-2.84.17-1.36 1.51-2.17 5-1.19 5.43.8.35.98.26 2.31-1.08zm-8.65-3.4c1.37-1 1.68-1.82.77-2.17-.7-.25-1.79.73-2.24 2s-.25 1.29 1.43.17zm6.13-7a26.1 26.1 0 002.38-2.26c.07-.1-.64-.52-1.55-.87-2.38-1-5.25-.88-8.58.35a13.44 13.44 0 00-2.73 1.19 12.07 12.07 0 002.56 1.16 25.6 25.6 0 013.57 1.64 4.3 4.3 0 001.51.7 10.69 10.69 0 002.81-1.95zm16.7-5.15c2.32-1.12 5.89-2.69 8-3.5 2.24-.88 3.78-1.68 3.78-2a4.54 4.54 0 01.73-1.65c.39-.66.63-1.19.49-1.19a136.38 136.38 0 00-12.5 5.5c-5.08 2.45-5.53 2.77-5.53 3.61s.31 1.5.66 1.29c.03-.03 2.02-1.01 4.33-2.1zm-3.57-52.5a9.15 9.15 0 00-1.72-1.44c-.59-.42-.38-.14.53.7 1.71 1.58 2.24 1.89 1.19.74zM101.58 125.16a26.12 26.12 0 00-2.31-2.27 5.78 5.78 0 00-.38 1.61 5.54 5.54 0 01-.6 2.1c-.56.67-2 .6-2.31-.11a19.15 19.15 0 01.77-4.62c1.3-5.46 1.68-6.16 3.19-5.78.42.11.87 0 1-.17.42-.63 2.84-.46 3.47.24 1 1.16.52 4.07-1 5.29-.49.42-.49.53 0 1.33a7.55 7.55 0 001.93 1.72c1.47.94 1.75 2 .67 2.59-1.44.74-2.24.39-4.49-1.93zm-.17-5.53c.87-.81 1-1.65.28-1.65s-2 1.65-2 2.35.53.35 1.72-.7z"/><path d="M87.19 126.7c-.56-.21-.77-.52-.63-.91a64.49 64.49 0 012.2-6.93 15.82 15.82 0 011.44-1.33c1.09-.88 1.44-1 4.13-1s3 .07 3 .67c0 1-.88 1.5-3.58 1.75-2 .17-2.55.35-2.66.84s.14.6 1.65.6 1.78.07 1.78.84c0 1.08-.45 1.36-2.59 1.61s-2.55.91-.38.77c2.52-.21 3.39.14 3.25 1.22-.1.91-.24 1-2.76 1.37-1.47.21-2.94.49-3.33.59a2.65 2.65 0 01-1.52-.09zM28.66 126.11c-1.33-2.52 1.05-8.09 4.21-9.7 1.89-1 4.51-.49 4.51.87 0 .88-1.15 1.47-2.24 1.19-1.29-.31-2.27.42-3.22 2.42-1.4 3-1.12 3.22 2.38 1.93 2.42-.88 3.16-.6 2.45.94-.52 1.12-3.74 2.7-6.05 2.91-1.41.14-1.7.03-2.04-.56z"/></g>
</svg>
